<mxfile host="app.diagrams.net" modified="2020-03-19T23:59:45.230Z" agent="Mozilla/5.0 (Windows NT 10.0; Win64; x64; rv:74.0) Gecko/20100101 Firefox/74.0" etag="ydgzw-MA4xM1HqKz0xIH" version="12.8.8" type="github">
  <diagram id="us54pe5w8Rup_rRlS2Na" name="Page-1">
    <mxGraphModel dx="658" dy="681" grid="1" gridSize="10" guides="1" tooltips="1" connect="1" arrows="1" fold="1" page="1" pageScale="1" pageWidth="850" pageHeight="1100" math="0" shadow="0">
      <root>
        <mxCell id="0" />
        <mxCell id="1" parent="0" />
        <mxCell id="0eLq_oUpQVRXj5nAk-Yv-3" value="" style="edgeStyle=orthogonalEdgeStyle;rounded=0;orthogonalLoop=1;jettySize=auto;html=1;" edge="1" parent="1" source="0eLq_oUpQVRXj5nAk-Yv-1" target="0eLq_oUpQVRXj5nAk-Yv-2">
          <mxGeometry relative="1" as="geometry" />
        </mxCell>
        <mxCell id="0eLq_oUpQVRXj5nAk-Yv-1" value="Step 1" style="rounded=1;whiteSpace=wrap;html=1;" vertex="1" parent="1">
          <mxGeometry x="230" y="130" width="120" height="60" as="geometry" />
        </mxCell>
        <mxCell id="0eLq_oUpQVRXj5nAk-Yv-2" value="Step 2" style="rounded=1;whiteSpace=wrap;html=1;" vertex="1" parent="1">
          <mxGeometry x="230" y="240" width="120" height="60" as="geometry" />
        </mxCell>
      </root>
    </mxGraphModel>
  </diagram>
</mxfile>
